<?xml version="1.0" encoding="UTF-8" standalone="no"?><svg xmlns="http://www.w3.org/2000/svg" xmlns:xlink="http://www.w3.org/1999/xlink" clip-rule="evenodd" stroke-miterlimit="10" viewBox="0 0 1024 768"><desc>SVG generated by Keynote</desc><defs></defs><g transform="matrix(1.00, 0.00, -0.00, -1.00, 0.0, 768.0)"><g><clipPath id="clip0x7fc0a68aff70"><path d="M 0.0 768.0 L 1024.0 768.0 L 1024.0 0.0 L 0.0 0.0 Z M 0.0 768.0 "></path></clipPath><g clip-path="url(#clip0x7fc0a68aff70)"><image xlink:href="../../BE4D2DDB-FBE4-467E-AE38-B34F9028D09E/assets/9397CAD6F20342ACC2646ABBCA758461.jpeg" width="2048.00" height="1536.00" transform="matrix(0.50, 0.00, -0.00, -0.50, 0.0, 768.0)"></image></g></g><image xlink:href="../../51E0E362-5229-4BC0-808F-2451F42310D5/assets/7973D83D898274F00BDFC64A375D9B74.png" width="562.00" height="426.00" transform="matrix(1.00, 0.00, -0.00, -1.00, 465.2, 797.1)" opacity="0.70"></image><g><clipPath id="clip0x7fc0a53de6d0"><path d="M 485.0 787.0 L 1007.0 787.0 L 1007.0 401.0 L 485.0 401.0 Z M 485.2 787.1 "></path></clipPath><g clip-path="url(#clip0x7fc0a53de6d0)"><image xlink:href="../../4389118E-E8E4-4CC2-A489-D0B4DB1BE700/assets/E26278425956A030AC09D7945B55DED5.jpeg" width="1280.00" height="720.00" transform="matrix(0.41, 0.00, -0.00, -0.41, 485.2, 740.8)"></image></g></g><image xlink:href="../../51E0E362-5229-4BC0-808F-2451F42310D5/assets/87DBF94CF11C36D930E7432DD431F9AB.png" width="467.00" height="659.00" transform="matrix(1.00, 0.00, -0.00, -1.00, 30.3, 713.7)" opacity="0.70"></image><g><clipPath id="clip0x7fc0a68b3460"><path d="M 50.0 704.0 L 477.0 704.0 L 477.0 85.0 L 50.0 85.0 Z M 50.3 703.8 "></path></clipPath><g clip-path="url(#clip0x7fc0a68b3460)"><image xlink:href="../../4389118E-E8E4-4CC2-A489-D0B4DB1BE700/assets/FD7CB16B5F347142BA4D5BD293EDA1B1.jpeg" width="384.00" height="538.00" transform="matrix(1.11, 0.00, -0.00, -1.11, 50.3, 693.4)"></image></g></g><image xlink:href="../../51E0E362-5229-4BC0-808F-2451F42310D5/assets/DBE9A241C4ADF29E1BB9C6FD784AF6C3.png" width="393.00" height="459.00" transform="matrix(1.00, 0.00, -0.00, -1.00, 549.3, 441.5)" opacity="0.70"></image><g><clipPath id="clip0x7fc0a68b60d0"><path d="M 569.0 432.0 L 923.0 432.0 L 923.0 13.0 L 569.0 13.0 Z M 569.3 431.5 "></path></clipPath><g clip-path="url(#clip0x7fc0a68b60d0)"><image xlink:href="../../4389118E-E8E4-4CC2-A489-D0B4DB1BE700/assets/FF2539D79F08BB333826375869BDBA02.png" width="155.00" height="182.00" transform="matrix(2.28, 0.00, -0.00, -2.28, 569.3, 429.5)"></image></g></g></g></svg>